<svg xmlns="http://www.w3.org/2000/svg" xmlns:xlink="http://www.w3.org/1999/xlink" width="500" zoomAndPan="magnify" viewBox="0 0 375 374.999991" height="500" preserveAspectRatio="xMidYMid meet" version="1.0"><defs><g/><clipPath id="a4bf1d64af"><path d="M 242 68 L 309 68 L 309 147 L 242 147 Z M 242 68 " clip-rule="nonzero"/></clipPath><clipPath id="2ccf89f519"><path d="M 324.933594 152.378906 L 238.183594 145.757812 L 247.316406 26.105469 L 334.066406 32.726562 Z M 324.933594 152.378906 " clip-rule="nonzero"/></clipPath><clipPath id="0f6a39d564"><path d="M 324.933594 152.378906 L 238.183594 145.757812 L 247.316406 26.105469 L 334.066406 32.726562 Z M 324.933594 152.378906 " clip-rule="nonzero"/></clipPath><clipPath id="066612aac2"><path d="M 295 33 L 332 33 L 332 82 L 295 82 Z M 295 33 " clip-rule="nonzero"/></clipPath><clipPath id="f11ad41577"><path d="M 324.933594 152.378906 L 238.183594 145.757812 L 247.316406 26.105469 L 334.066406 32.726562 Z M 324.933594 152.378906 " clip-rule="nonzero"/></clipPath><clipPath id="9d839b3825"><path d="M 324.933594 152.378906 L 238.183594 145.757812 L 247.316406 26.105469 L 334.066406 32.726562 Z M 324.933594 152.378906 " clip-rule="nonzero"/></clipPath><clipPath id="5bd25c6b2f"><path d="M 305 33 L 332 33 L 332 65 L 305 65 Z M 305 33 " clip-rule="nonzero"/></clipPath><clipPath id="588b444e74"><path d="M 324.933594 152.378906 L 238.183594 145.757812 L 247.316406 26.105469 L 334.066406 32.726562 Z M 324.933594 152.378906 " clip-rule="nonzero"/></clipPath><clipPath id="1143f2becd"><path d="M 324.933594 152.378906 L 238.183594 145.757812 L 247.316406 26.105469 L 334.066406 32.726562 Z M 324.933594 152.378906 " clip-rule="nonzero"/></clipPath><clipPath id="36cf288ccb"><path d="M 328 37 L 332 37 L 332 47 L 328 47 Z M 328 37 " clip-rule="nonzero"/></clipPath><clipPath id="82c6ed2a1c"><path d="M 324.933594 152.378906 L 238.183594 145.757812 L 247.316406 26.105469 L 334.066406 32.726562 Z M 324.933594 152.378906 " clip-rule="nonzero"/></clipPath><clipPath id="33ab01dcb9"><path d="M 324.933594 152.378906 L 238.183594 145.757812 L 247.316406 26.105469 L 334.066406 32.726562 Z M 324.933594 152.378906 " clip-rule="nonzero"/></clipPath><clipPath id="5e996c4c7f"><path d="M 324 50 L 331 50 L 331 63 L 324 63 Z M 324 50 " clip-rule="nonzero"/></clipPath><clipPath id="b980611b8e"><path d="M 324.933594 152.378906 L 238.183594 145.757812 L 247.316406 26.105469 L 334.066406 32.726562 Z M 324.933594 152.378906 " clip-rule="nonzero"/></clipPath><clipPath id="63a26f6e34"><path d="M 324.933594 152.378906 L 238.183594 145.757812 L 247.316406 26.105469 L 334.066406 32.726562 Z M 324.933594 152.378906 " clip-rule="nonzero"/></clipPath><clipPath id="4e36a170ce"><path d="M 266 106 L 284 106 L 284 126 L 266 126 Z M 266 106 " clip-rule="nonzero"/></clipPath><clipPath id="e8901b1fcb"><path d="M 324.933594 152.378906 L 238.183594 145.757812 L 247.316406 26.105469 L 334.066406 32.726562 Z M 324.933594 152.378906 " clip-rule="nonzero"/></clipPath><clipPath id="aa36661e5a"><path d="M 324.933594 152.378906 L 238.183594 145.757812 L 247.316406 26.105469 L 334.066406 32.726562 Z M 324.933594 152.378906 " clip-rule="nonzero"/></clipPath><clipPath id="b48d27b403"><path d="M 260 125 L 267 125 L 267 133 L 260 133 Z M 260 125 " clip-rule="nonzero"/></clipPath><clipPath id="a4b35d52f7"><path d="M 324.933594 152.378906 L 238.183594 145.757812 L 247.316406 26.105469 L 334.066406 32.726562 Z M 324.933594 152.378906 " clip-rule="nonzero"/></clipPath><clipPath id="21760dd51a"><path d="M 324.933594 152.378906 L 238.183594 145.757812 L 247.316406 26.105469 L 334.066406 32.726562 Z M 324.933594 152.378906 " clip-rule="nonzero"/></clipPath><clipPath id="a2d49663de"><path d="M 323 49 L 332 49 L 332 66 L 323 66 Z M 323 49 " clip-rule="nonzero"/></clipPath><clipPath id="242b1a06a7"><path d="M 328.4375 48.601562 L 333.089844 50.609375 L 326.320312 66.277344 L 321.667969 64.269531 Z M 328.4375 48.601562 " clip-rule="nonzero"/></clipPath><clipPath id="484f08601a"><path d="M 330.683594 49.570312 C 329.445312 49.035156 326.921875 52.109375 325.054688 56.4375 C 323.183594 60.761719 322.675781 64.703125 323.917969 65.238281 C 325.15625 65.777344 327.675781 62.703125 329.546875 58.375 C 331.414062 54.050781 331.925781 50.109375 330.683594 49.570312 " clip-rule="nonzero"/></clipPath><clipPath id="0723b925af"><path d="M 327 35 L 332 35 L 332 56 L 327 56 Z M 327 35 " clip-rule="nonzero"/></clipPath><clipPath id="203e43fe0f"><path d="M 326.75 35.933594 L 331.832031 35.785156 L 332.429688 56.113281 L 327.347656 56.265625 Z M 326.75 35.933594 " clip-rule="nonzero"/></clipPath><clipPath id="a8367bd03e"><path d="M 329.207031 35.859375 C 327.851562 35.902344 326.882812 40.449219 327.046875 46.019531 C 327.210938 51.589844 328.441406 56.074219 329.796875 56.035156 C 331.152344 55.992188 332.117188 51.445312 331.957031 45.875 C 331.792969 40.304688 330.5625 35.820312 329.207031 35.859375 " clip-rule="nonzero"/></clipPath></defs><g clip-path="url(#a4bf1d64af)"><g clip-path="url(#2ccf89f519)"><g clip-path="url(#0f6a39d564)"><path fill="#f18c73" d="M 297.59375 96.097656 C 297.59375 96.097656 251.246094 146.410156 244.722656 146.265625 C 238.519531 141.917969 247.484375 135.097656 248.339844 133.105469 C 249.195312 131.121094 291.367188 67.109375 299.730469 68.101562 C 308.097656 69.09375 314.851562 77.851562 297.59375 96.097656 Z M 297.59375 96.097656 " fill-opacity="1" fill-rule="nonzero"/></g></g></g><g clip-path="url(#066612aac2)"><g clip-path="url(#f11ad41577)"><g clip-path="url(#9d839b3825)"><path fill="#fdebde" d="M 305.796875 51.222656 C 308.191406 49.382812 310.804688 48.015625 313.382812 47.34375 C 331.207031 42.703125 325.820312 34.726562 326.4375 33.46875 C 327.050781 32.210938 333.636719 38.191406 331.230469 49.230469 C 330.40625 53 328.785156 58.558594 326.273438 64.003906 C 321.445312 74.492188 313.328125 84.550781 301.347656 80.570312 C 297.566406 77.648438 295.855469 74.03125 295.625 70.265625 C 295.195312 63.292969 299.839844 55.796875 305.796875 51.222656 Z M 305.796875 51.222656 " fill-opacity="1" fill-rule="nonzero"/></g></g></g><g clip-path="url(#5bd25c6b2f)"><g clip-path="url(#588b444e74)"><g clip-path="url(#1143f2becd)"><path fill="#004aad" d="M 305.796875 51.222656 C 308.191406 49.382812 310.804688 48.015625 313.382812 47.34375 C 331.207031 42.703125 325.820312 34.726562 326.4375 33.46875 C 327.050781 32.210938 333.636719 38.191406 331.230469 49.230469 C 330.40625 53 328.785156 58.558594 326.273438 64.003906 C 323.800781 64.273438 322.703125 61.328125 324.464844 58.960938 C 326.949219 55.632812 328.019531 44.683594 326.65625 47.160156 C 325.296875 49.636719 325.890625 52.613281 321.933594 50.671875 C 317.980469 48.726562 319.058594 53.03125 317.855469 54.9375 C 316.65625 56.835938 310.558594 58.367188 312.898438 53.152344 C 314.59375 49.375 309.40625 51.582031 305.796875 51.222656 Z M 305.796875 51.222656 " fill-opacity="1" fill-rule="nonzero"/></g></g></g><g clip-path="url(#36cf288ccb)"><g clip-path="url(#82c6ed2a1c)"><g clip-path="url(#33ab01dcb9)"><path stroke-linecap="round" transform="matrix(-0.596985, -0.0455657, 0.0455946, -0.597364, 404.681018, 226.601923)" fill="none" stroke-linejoin="round" d="M 146.595106 291.764235 C 146.595106 291.764235 146.888928 298.352901 149.085372 303.037408 " stroke="#ed6c71" stroke-width="4.556" stroke-opacity="1" stroke-miterlimit="10"/></g></g></g><g clip-path="url(#5e996c4c7f)"><g clip-path="url(#b980611b8e)"><g clip-path="url(#63a26f6e34)"><path stroke-linecap="round" transform="matrix(-0.596985, -0.0455657, 0.0455946, -0.597364, 404.681018, 226.601923)" fill="none" stroke-linejoin="round" d="M 147.84519 280.630801 C 147.84519 280.630801 149.669852 267.596421 151.722349 265.255785 " stroke="#ed6c71" stroke-width="4.556" stroke-opacity="1" stroke-miterlimit="10"/></g></g></g><g clip-path="url(#4e36a170ce)"><g clip-path="url(#e8901b1fcb)"><g clip-path="url(#aa36661e5a)"><path stroke-linecap="round" transform="matrix(-0.596985, -0.0455657, 0.0455946, -0.597364, 404.681018, 226.601923)" fill="none" stroke-linejoin="round" d="M 218.943969 181.926593 C 218.943969 181.926593 236.909611 156.537922 240.421563 152.830446 " stroke="#c77660" stroke-width="4.556" stroke-opacity="1" stroke-miterlimit="10"/></g></g></g><g clip-path="url(#b48d27b403)"><g clip-path="url(#a4b35d52f7)"><g clip-path="url(#21760dd51a)"><path stroke-linecap="round" transform="matrix(-0.596985, -0.0455657, 0.0455946, -0.597364, 404.681018, 226.601923)" fill="none" stroke-linejoin="round" d="M 244.326135 147.752496 C 244.326135 147.752496 249.599937 140.726065 250.772204 140.139672 " stroke="#c77660" stroke-width="4.556" stroke-opacity="1" stroke-miterlimit="10"/></g></g></g><path fill="#5ce1e6" d="M 291.625 82.5625 C 291.082031 80.824219 276.980469 79.679688 266.132812 86.53125 C 248.503906 97.734375 256.3125 126.015625 235.863281 137.652344 C 227.671875 142.328125 216.390625 144.613281 208.089844 144.9375 L 225.503906 159.621094 C 232.285156 158.535156 242.046875 155.871094 250.5625 148.417969 C 261.03125 139.335938 265.480469 126.882812 268.085938 119.652344 C 273.238281 105.292969 271.5 98.714844 278.824219 91.316406 C 285.007812 85.171875 292.003906 83.8125 291.625 82.5625 Z M 291.625 82.5625 " fill-opacity="1" fill-rule="nonzero"/><path fill="#0097b2" d="M 250.617188 148.417969 C 261.085938 139.335938 265.535156 126.882812 268.136719 119.652344 C 273.292969 105.292969 271.554688 98.714844 278.878906 91.316406 C 279.203125 90.992188 279.476562 90.503906 279.910156 90.339844 C 263.417969 97.082031 267.867188 130.855469 237.113281 146.136719 C 224.960938 152.171875 212.320312 146.734375 208.089844 144.992188 L 225.503906 159.675781 C 232.339844 158.535156 242.101562 155.816406 250.617188 148.417969 Z M 250.617188 148.417969 " fill-opacity="1" fill-rule="nonzero"/><path fill="#5ce1e6" d="M 162.90625 141.457031 C 141.261719 140.96875 131.335938 134.171875 126.238281 127.972656 C 115.550781 114.972656 121.085938 98.277344 107.6875 89.035156 C 100.742188 84.25 91.195312 83.214844 89.839844 85.554688 C 88.753906 87.457031 93.636719 90.449219 97.867188 97.464844 C 104.757812 108.828125 100.6875 115.625 105.570312 129.710938 C 107.359375 134.933594 110.34375 143.578125 118.15625 150.375 C 131.5 162.015625 150.160156 160.4375 157.644531 159.839844 C 164.804688 159.242188 171.367188 158.644531 175.21875 157.335938 C 176.683594 147.058594 171.910156 140.859375 162.90625 141.457031 Z M 162.90625 141.457031 " fill-opacity="1" fill-rule="nonzero"/><path fill="#0097b2" d="M 116.367188 136.5625 C 112.351562 128.570312 114.847656 117.367188 105.789062 107.851562 C 104.214844 106.21875 102.585938 104.914062 100.90625 103.773438 C 103.5625 111.765625 101.773438 118.398438 105.625 129.65625 C 107.414062 134.878906 110.398438 143.523438 118.210938 150.324219 C 131.554688 161.960938 150.214844 160.382812 157.699219 159.785156 C 164.859375 159.1875 171.421875 158.589844 175.273438 157.285156 C 175.597656 155.109375 175.597656 153.148438 175.382812 151.355469 C 134.863281 153.53125 120.8125 145.535156 116.367188 136.5625 Z M 116.367188 136.5625 " fill-opacity="1" fill-rule="nonzero"/><path fill="#5ce1e6" d="M 176.085938 141.566406 C 168.546875 141.839844 145.167969 143.796875 126.5625 161.960938 C 123.472656 165.003906 104.703125 183.332031 106.980469 206.007812 C 107.742188 213.570312 110.996094 223.085938 114.359375 223.03125 C 117.015625 223.03125 116.855469 214.492188 122.875 201.550781 C 125.585938 195.621094 128.570312 189.261719 134.320312 183.765625 C 141.15625 177.242188 144.679688 178.925781 159.054688 171.152344 C 170.230469 165.167969 179.394531 160.058594 180.101562 152.28125 C 180.535156 147.820312 178.039062 143.960938 176.085938 141.566406 Z M 176.085938 141.566406 " fill-opacity="1" fill-rule="nonzero"/><path fill="#0097b2" d="M 160.085938 164.949219 C 160.085938 165.269531 160.046875 165.582031 159.972656 165.894531 C 159.894531 166.207031 159.78125 166.507812 159.632812 166.804688 C 159.480469 167.097656 159.296875 167.375 159.082031 167.640625 C 158.863281 167.90625 158.613281 168.148438 158.339844 168.375 C 158.0625 168.597656 157.757812 168.800781 157.433594 168.976562 C 157.109375 169.152344 156.765625 169.300781 156.402344 169.421875 C 156.039062 169.542969 155.667969 169.636719 155.28125 169.699219 C 154.898438 169.761719 154.511719 169.792969 154.117188 169.792969 C 153.726562 169.792969 153.339844 169.761719 152.953125 169.699219 C 152.570312 169.636719 152.199219 169.542969 151.835938 169.421875 C 151.472656 169.300781 151.128906 169.152344 150.804688 168.976562 C 150.476562 168.800781 150.175781 168.597656 149.898438 168.375 C 149.621094 168.148438 149.375 167.90625 149.15625 167.640625 C 148.941406 167.375 148.757812 167.097656 148.605469 166.804688 C 148.457031 166.507812 148.34375 166.207031 148.265625 165.894531 C 148.191406 165.582031 148.152344 165.269531 148.152344 164.949219 C 148.152344 164.632812 148.191406 164.320312 148.265625 164.007812 C 148.34375 163.695312 148.457031 163.390625 148.605469 163.097656 C 148.757812 162.804688 148.941406 162.527344 149.15625 162.261719 C 149.375 161.996094 149.621094 161.753906 149.898438 161.527344 C 150.175781 161.304688 150.476562 161.101562 150.804688 160.925781 C 151.128906 160.75 151.472656 160.601562 151.835938 160.480469 C 152.199219 160.359375 152.570312 160.265625 152.953125 160.203125 C 153.339844 160.140625 153.726562 160.109375 154.117188 160.109375 C 154.511719 160.109375 154.898438 160.140625 155.28125 160.203125 C 155.667969 160.265625 156.039062 160.359375 156.402344 160.480469 C 156.765625 160.601562 157.109375 160.75 157.433594 160.925781 C 157.757812 161.101562 158.0625 161.304688 158.339844 161.527344 C 158.613281 161.753906 158.863281 161.996094 159.082031 162.261719 C 159.296875 162.527344 159.480469 162.804688 159.632812 163.097656 C 159.78125 163.390625 159.894531 163.695312 159.972656 164.007812 C 160.046875 164.320312 160.085938 164.632812 160.085938 164.949219 Z M 160.085938 164.949219 " fill-opacity="1" fill-rule="nonzero"/><path fill="#0097b2" d="M 145.496094 173.652344 C 145.496094 174.027344 145.421875 174.386719 145.28125 174.734375 C 145.136719 175.082031 144.933594 175.386719 144.667969 175.652344 C 144.402344 175.917969 144.097656 176.121094 143.753906 176.265625 C 143.40625 176.410156 143.046875 176.480469 142.671875 176.480469 C 142.300781 176.480469 141.941406 176.410156 141.59375 176.265625 C 141.25 176.121094 140.945312 175.917969 140.679688 175.652344 C 140.414062 175.386719 140.210938 175.082031 140.066406 174.734375 C 139.925781 174.386719 139.851562 174.027344 139.851562 173.652344 C 139.851562 173.277344 139.925781 172.917969 140.066406 172.570312 C 140.210938 172.222656 140.414062 171.917969 140.679688 171.652344 C 140.945312 171.386719 141.25 171.183594 141.59375 171.039062 C 141.941406 170.894531 142.300781 170.824219 142.671875 170.824219 C 143.046875 170.824219 143.40625 170.894531 143.753906 171.039062 C 144.097656 171.183594 144.402344 171.386719 144.667969 171.652344 C 144.933594 171.917969 145.136719 172.222656 145.28125 172.570312 C 145.421875 172.917969 145.496094 173.277344 145.496094 173.652344 Z M 145.496094 173.652344 " fill-opacity="1" fill-rule="nonzero"/><path fill="#0097b2" d="M 124.121094 191.816406 C 124.121094 192.078125 124.097656 192.335938 124.046875 192.589844 C 123.996094 192.847656 123.921875 193.09375 123.820312 193.335938 C 123.722656 193.574219 123.597656 193.804688 123.453125 194.019531 C 123.3125 194.238281 123.144531 194.4375 122.960938 194.621094 C 122.777344 194.808594 122.578125 194.972656 122.363281 195.117188 C 122.144531 195.261719 121.917969 195.382812 121.679688 195.484375 C 121.4375 195.582031 121.191406 195.660156 120.933594 195.710938 C 120.679688 195.761719 120.421875 195.785156 120.164062 195.785156 C 119.902344 195.785156 119.644531 195.761719 119.390625 195.710938 C 119.136719 195.660156 118.886719 195.582031 118.648438 195.484375 C 118.40625 195.382812 118.179688 195.261719 117.960938 195.117188 C 117.746094 194.972656 117.546875 194.808594 117.363281 194.621094 C 117.179688 194.4375 117.015625 194.238281 116.871094 194.019531 C 116.726562 193.804688 116.605469 193.574219 116.503906 193.335938 C 116.40625 193.09375 116.328125 192.847656 116.277344 192.589844 C 116.226562 192.335938 116.203125 192.078125 116.203125 191.816406 C 116.203125 191.554688 116.226562 191.296875 116.277344 191.042969 C 116.328125 190.785156 116.40625 190.539062 116.503906 190.296875 C 116.605469 190.054688 116.726562 189.828125 116.871094 189.609375 C 117.015625 189.394531 117.179688 189.191406 117.363281 189.007812 C 117.546875 188.824219 117.746094 188.660156 117.960938 188.515625 C 118.179688 188.371094 118.40625 188.246094 118.648438 188.148438 C 118.886719 188.046875 119.136719 187.972656 119.390625 187.921875 C 119.644531 187.871094 119.902344 187.847656 120.164062 187.847656 C 120.421875 187.847656 120.679688 187.871094 120.933594 187.921875 C 121.191406 187.972656 121.4375 188.046875 121.679688 188.148438 C 121.917969 188.246094 122.144531 188.371094 122.363281 188.515625 C 122.578125 188.660156 122.777344 188.824219 122.960938 189.007812 C 123.144531 189.191406 123.3125 189.394531 123.453125 189.609375 C 123.597656 189.828125 123.722656 190.054688 123.820312 190.296875 C 123.921875 190.539062 123.996094 190.785156 124.046875 191.042969 C 124.097656 191.296875 124.121094 191.554688 124.121094 191.816406 Z M 124.121094 191.816406 " fill-opacity="1" fill-rule="nonzero"/><path fill="#0097b2" d="M 119.292969 203.996094 C 119.292969 204.292969 119.238281 204.578125 119.125 204.851562 C 119.011719 205.125 118.851562 205.363281 118.644531 205.574219 C 118.433594 205.78125 118.195312 205.945312 117.921875 206.058594 C 117.648438 206.171875 117.367188 206.226562 117.070312 206.226562 C 116.777344 206.226562 116.492188 206.171875 116.21875 206.058594 C 115.945312 205.945312 115.707031 205.78125 115.5 205.574219 C 115.289062 205.363281 115.128906 205.125 115.015625 204.851562 C 114.902344 204.578125 114.847656 204.292969 114.847656 203.996094 C 114.847656 203.703125 114.902344 203.417969 115.015625 203.144531 C 115.128906 202.871094 115.289062 202.628906 115.5 202.421875 C 115.707031 202.210938 115.945312 202.050781 116.21875 201.9375 C 116.492188 201.824219 116.777344 201.769531 117.070312 201.769531 C 117.367188 201.769531 117.648438 201.824219 117.921875 201.9375 C 118.195312 202.050781 118.433594 202.210938 118.644531 202.421875 C 118.851562 202.628906 119.011719 202.871094 119.125 203.144531 C 119.238281 203.417969 119.292969 203.703125 119.292969 203.996094 Z M 119.292969 203.996094 " fill-opacity="1" fill-rule="nonzero"/><path fill="#5ce1e6" d="M 193.445312 171.910156 C 197.40625 161.089844 199.25 151.84375 200.117188 146.351562 L 179.449219 144.121094 C 168.113281 159.457031 163.882812 173.871094 162.09375 182.246094 C 159.542969 194.152344 156.777344 207.261719 163.558594 220.367188 C 169.144531 231.1875 178.636719 239.726562 181.292969 238.148438 C 183.84375 236.625 176.902344 227.597656 177.226562 213.351562 C 177.550781 198.449219 185.582031 193.230469 193.445312 171.910156 Z M 193.445312 171.910156 " fill-opacity="1" fill-rule="nonzero"/><path fill="#0097b2" d="M 191.925781 169.410156 C 191.925781 169.597656 191.890625 169.777344 191.820312 169.953125 C 191.746094 170.125 191.644531 170.277344 191.511719 170.410156 C 191.382812 170.542969 191.230469 170.644531 191.054688 170.714844 C 190.882812 170.789062 190.703125 170.824219 190.515625 170.824219 C 190.328125 170.824219 190.148438 170.789062 189.976562 170.714844 C 189.804688 170.644531 189.652344 170.542969 189.519531 170.410156 C 189.386719 170.277344 189.285156 170.125 189.214844 169.953125 C 189.140625 169.777344 189.105469 169.597656 189.105469 169.410156 C 189.105469 169.222656 189.140625 169.042969 189.214844 168.871094 C 189.285156 168.695312 189.386719 168.542969 189.519531 168.410156 C 189.652344 168.277344 189.804688 168.175781 189.976562 168.105469 C 190.148438 168.03125 190.328125 167.996094 190.515625 167.996094 C 190.703125 167.996094 190.882812 168.03125 191.054688 168.105469 C 191.230469 168.175781 191.382812 168.277344 191.511719 168.410156 C 191.644531 168.542969 191.746094 168.695312 191.820312 168.871094 C 191.890625 169.042969 191.925781 169.222656 191.925781 169.410156 Z M 191.925781 169.410156 " fill-opacity="1" fill-rule="nonzero"/><path fill="#0097b2" d="M 190.027344 174.414062 C 190.027344 174.890625 189.9375 175.347656 189.753906 175.785156 C 189.574219 176.226562 189.316406 176.613281 188.980469 176.953125 C 188.644531 177.289062 188.257812 177.546875 187.816406 177.730469 C 187.378906 177.910156 186.921875 178.003906 186.449219 178.003906 C 185.972656 178.003906 185.515625 177.910156 185.078125 177.730469 C 184.640625 177.546875 184.253906 177.289062 183.917969 176.953125 C 183.582031 176.613281 183.320312 176.226562 183.140625 175.785156 C 182.957031 175.347656 182.867188 174.890625 182.867188 174.414062 C 182.867188 173.9375 182.957031 173.480469 183.140625 173.039062 C 183.320312 172.601562 183.582031 172.210938 183.917969 171.875 C 184.253906 171.539062 184.640625 171.28125 185.078125 171.097656 C 185.515625 170.914062 185.972656 170.824219 186.449219 170.824219 C 186.921875 170.824219 187.378906 170.914062 187.816406 171.097656 C 188.257812 171.28125 188.644531 171.539062 188.980469 171.875 C 189.316406 172.210938 189.574219 172.601562 189.753906 173.039062 C 189.9375 173.480469 190.027344 173.9375 190.027344 174.414062 Z M 190.027344 174.414062 " fill-opacity="1" fill-rule="nonzero"/><path fill="#0097b2" d="M 176.195312 219.496094 C 176.195312 219.753906 176.144531 220.003906 176.046875 220.246094 C 175.949219 220.484375 175.808594 220.695312 175.625 220.878906 C 175.441406 221.0625 175.230469 221.207031 174.992188 221.304688 C 174.75 221.402344 174.503906 221.453125 174.242188 221.453125 C 173.984375 221.453125 173.734375 221.402344 173.496094 221.304688 C 173.257812 221.207031 173.046875 221.0625 172.863281 220.878906 C 172.679688 220.695312 172.539062 220.484375 172.4375 220.246094 C 172.339844 220.003906 172.289062 219.753906 172.289062 219.496094 C 172.289062 219.238281 172.339844 218.988281 172.4375 218.746094 C 172.539062 218.507812 172.679688 218.296875 172.863281 218.113281 C 173.046875 217.929688 173.257812 217.785156 173.496094 217.6875 C 173.734375 217.589844 173.984375 217.539062 174.242188 217.539062 C 174.503906 217.539062 174.75 217.589844 174.992188 217.6875 C 175.230469 217.785156 175.441406 217.929688 175.625 218.113281 C 175.808594 218.296875 175.949219 218.507812 176.046875 218.746094 C 176.144531 218.988281 176.195312 219.238281 176.195312 219.496094 Z M 176.195312 219.496094 " fill-opacity="1" fill-rule="nonzero"/><path fill="#0097b2" d="M 177.660156 228.25 C 177.660156 228.394531 177.632812 228.535156 177.578125 228.667969 C 177.523438 228.800781 177.445312 228.917969 177.34375 229.019531 C 177.242188 229.121094 177.125 229.203125 176.992188 229.257812 C 176.859375 229.3125 176.71875 229.339844 176.574219 229.339844 C 176.433594 229.339844 176.292969 229.3125 176.160156 229.257812 C 176.027344 229.203125 175.910156 229.121094 175.808594 229.019531 C 175.707031 228.917969 175.628906 228.800781 175.574219 228.667969 C 175.519531 228.535156 175.492188 228.394531 175.492188 228.25 C 175.492188 228.105469 175.519531 227.96875 175.574219 227.835938 C 175.628906 227.703125 175.707031 227.585938 175.808594 227.484375 C 175.910156 227.378906 176.027344 227.300781 176.160156 227.246094 C 176.292969 227.191406 176.433594 227.164062 176.574219 227.164062 C 176.71875 227.164062 176.859375 227.191406 176.992188 227.246094 C 177.125 227.300781 177.242188 227.378906 177.34375 227.484375 C 177.445312 227.585938 177.523438 227.703125 177.578125 227.835938 C 177.632812 227.96875 177.660156 228.105469 177.660156 228.25 Z M 177.660156 228.25 " fill-opacity="1" fill-rule="nonzero"/><path fill="#5ce1e6" d="M 222.355469 167.671875 C 218.179688 157.011719 213.246094 148.910156 209.828125 143.796875 L 187.914062 145.046875 C 195.613281 153.203125 222.792969 198.667969 212.429688 222.976562 C 207.710938 234.015625 199.085938 238.964844 200.550781 240.976562 C 202.289062 243.425781 217.421875 240.160156 225.667969 229.71875 C 239.714844 211.773438 227.347656 180.339844 222.355469 167.671875 Z M 222.355469 167.671875 " fill-opacity="1" fill-rule="nonzero"/><path fill="#0097b2" d="M 212.160156 169.683594 C 212.160156 169.941406 212.132812 170.203125 212.082031 170.457031 C 212.03125 170.710938 211.957031 170.960938 211.859375 171.203125 C 211.757812 171.441406 211.636719 171.671875 211.492188 171.886719 C 211.347656 172.105469 211.183594 172.304688 211 172.488281 C 210.816406 172.671875 210.617188 172.839844 210.398438 172.984375 C 210.183594 173.128906 209.957031 173.25 209.714844 173.351562 C 209.476562 173.449219 209.226562 173.523438 208.972656 173.574219 C 208.71875 173.625 208.460938 173.652344 208.199219 173.652344 C 207.941406 173.652344 207.683594 173.625 207.425781 173.574219 C 207.171875 173.523438 206.925781 173.449219 206.683594 173.351562 C 206.445312 173.25 206.214844 173.128906 206 172.984375 C 205.785156 172.839844 205.582031 172.671875 205.398438 172.488281 C 205.214844 172.304688 205.050781 172.105469 204.90625 171.886719 C 204.761719 171.671875 204.640625 171.441406 204.542969 171.203125 C 204.441406 170.960938 204.367188 170.710938 204.316406 170.457031 C 204.265625 170.203125 204.238281 169.941406 204.238281 169.683594 C 204.238281 169.421875 204.265625 169.164062 204.316406 168.90625 C 204.367188 168.652344 204.441406 168.402344 204.542969 168.164062 C 204.640625 167.921875 204.761719 167.695312 204.90625 167.476562 C 205.050781 167.261719 205.214844 167.058594 205.398438 166.875 C 205.582031 166.691406 205.785156 166.527344 206 166.382812 C 206.214844 166.238281 206.445312 166.113281 206.683594 166.015625 C 206.925781 165.914062 207.171875 165.839844 207.425781 165.789062 C 207.683594 165.738281 207.941406 165.710938 208.199219 165.710938 C 208.460938 165.710938 208.71875 165.738281 208.972656 165.789062 C 209.226562 165.839844 209.476562 165.914062 209.714844 166.015625 C 209.957031 166.113281 210.183594 166.238281 210.398438 166.382812 C 210.617188 166.527344 210.816406 166.691406 211 166.875 C 211.183594 167.058594 211.347656 167.261719 211.492188 167.476562 C 211.636719 167.695312 211.757812 167.921875 211.859375 168.164062 C 211.957031 168.402344 212.03125 168.652344 212.082031 168.90625 C 212.132812 169.164062 212.160156 169.421875 212.160156 169.683594 Z M 212.160156 169.683594 " fill-opacity="1" fill-rule="nonzero"/><path fill="#0097b2" d="M 217.855469 184.09375 C 217.855469 184.46875 217.785156 184.828125 217.640625 185.175781 C 217.496094 185.523438 217.292969 185.828125 217.027344 186.09375 C 216.765625 186.359375 216.460938 186.5625 216.113281 186.707031 C 215.769531 186.851562 215.410156 186.921875 215.035156 186.921875 C 214.660156 186.921875 214.300781 186.851562 213.953125 186.707031 C 213.609375 186.5625 213.304688 186.359375 213.039062 186.09375 C 212.773438 185.828125 212.570312 185.523438 212.429688 185.175781 C 212.285156 184.828125 212.214844 184.46875 212.214844 184.09375 C 212.214844 183.71875 212.285156 183.359375 212.429688 183.011719 C 212.570312 182.664062 212.773438 182.359375 213.039062 182.09375 C 213.304688 181.828125 213.609375 181.625 213.953125 181.480469 C 214.300781 181.335938 214.660156 181.265625 215.035156 181.265625 C 215.410156 181.265625 215.769531 181.335938 216.113281 181.480469 C 216.460938 181.625 216.765625 181.828125 217.027344 182.09375 C 217.292969 182.359375 217.496094 182.664062 217.640625 183.011719 C 217.785156 183.359375 217.855469 183.71875 217.855469 184.09375 Z M 217.855469 184.09375 " fill-opacity="1" fill-rule="nonzero"/><path fill="#0097b2" d="M 221.867188 211.664062 C 221.867188 212.011719 221.816406 212.34375 221.714844 212.664062 C 221.613281 212.984375 221.46875 213.265625 221.28125 213.511719 C 221.09375 213.753906 220.875 213.945312 220.628906 214.078125 C 220.382812 214.210938 220.128906 214.277344 219.863281 214.277344 C 219.597656 214.277344 219.339844 214.210938 219.09375 214.078125 C 218.847656 213.945312 218.632812 213.753906 218.441406 213.511719 C 218.253906 213.265625 218.109375 212.984375 218.007812 212.664062 C 217.90625 212.34375 217.855469 212.011719 217.855469 211.664062 C 217.855469 211.320312 217.90625 210.984375 218.007812 210.667969 C 218.109375 210.347656 218.253906 210.0625 218.441406 209.820312 C 218.632812 209.574219 218.847656 209.386719 219.09375 209.253906 C 219.339844 209.121094 219.597656 209.054688 219.863281 209.054688 C 220.128906 209.054688 220.382812 209.121094 220.628906 209.253906 C 220.875 209.386719 221.09375 209.574219 221.28125 209.820312 C 221.46875 210.0625 221.613281 210.347656 221.714844 210.667969 C 221.816406 210.984375 221.867188 211.320312 221.867188 211.664062 Z M 221.867188 211.664062 " fill-opacity="1" fill-rule="nonzero"/><path fill="#0097b2" d="M 217.636719 224.714844 C 217.636719 224.949219 217.59375 225.167969 217.503906 225.382812 C 217.417969 225.597656 217.292969 225.785156 217.128906 225.945312 C 216.964844 226.109375 216.777344 226.234375 216.566406 226.324219 C 216.355469 226.414062 216.132812 226.457031 215.902344 226.457031 C 215.671875 226.457031 215.449219 226.414062 215.238281 226.324219 C 215.023438 226.234375 214.835938 226.109375 214.675781 225.945312 C 214.511719 225.785156 214.386719 225.597656 214.296875 225.382812 C 214.210938 225.167969 214.167969 224.949219 214.167969 224.714844 C 214.167969 224.484375 214.210938 224.265625 214.296875 224.050781 C 214.386719 223.835938 214.511719 223.648438 214.675781 223.484375 C 214.835938 223.324219 215.023438 223.199219 215.238281 223.109375 C 215.449219 223.019531 215.671875 222.976562 215.902344 222.976562 C 216.132812 222.976562 216.355469 223.019531 216.566406 223.109375 C 216.777344 223.199219 216.964844 223.324219 217.128906 223.484375 C 217.292969 223.648438 217.417969 223.835938 217.503906 224.050781 C 217.59375 224.265625 217.636719 224.484375 217.636719 224.714844 Z M 217.636719 224.714844 " fill-opacity="1" fill-rule="nonzero"/><path fill="#5ce1e6" d="M 267.269531 183.058594 C 250.945312 163.265625 230.386719 152.171875 215.144531 145.972656 L 202.722656 141.402344 C 206.464844 151.082031 211.128906 158.316406 214.707031 163.15625 C 218.992188 168.921875 225.71875 177.949219 237.4375 184.636719 C 247.582031 190.402344 248.992188 187.355469 255.28125 192.578125 C 263.09375 199.046875 267.214844 209.164062 270.851562 217.917969 C 274.160156 225.96875 275.082031 230.753906 276.980469 230.699219 C 279.367188 230.644531 281.429688 222.976562 281.808594 217.15625 C 282.132812 211.71875 281.535156 200.40625 267.269531 183.058594 Z M 267.269531 183.058594 " fill-opacity="1" fill-rule="nonzero"/><path fill="#0097b2" d="M 236.082031 169.246094 C 236.082031 169.535156 236.050781 169.824219 235.996094 170.105469 C 235.941406 170.390625 235.855469 170.664062 235.746094 170.933594 C 235.636719 171.199219 235.5 171.453125 235.339844 171.695312 C 235.179688 171.933594 234.996094 172.15625 234.792969 172.363281 C 234.589844 172.566406 234.367188 172.75 234.128906 172.910156 C 233.886719 173.070312 233.636719 173.207031 233.367188 173.316406 C 233.101562 173.425781 232.828125 173.511719 232.542969 173.566406 C 232.261719 173.625 231.976562 173.652344 231.6875 173.652344 C 231.398438 173.652344 231.113281 173.625 230.828125 173.566406 C 230.546875 173.511719 230.273438 173.425781 230.003906 173.316406 C 229.738281 173.207031 229.484375 173.070312 229.246094 172.910156 C 229.007812 172.75 228.785156 172.566406 228.582031 172.363281 C 228.375 172.15625 228.195312 171.933594 228.035156 171.695312 C 227.875 171.453125 227.738281 171.199219 227.628906 170.933594 C 227.515625 170.664062 227.433594 170.390625 227.378906 170.105469 C 227.320312 169.824219 227.292969 169.535156 227.292969 169.246094 C 227.292969 168.957031 227.320312 168.671875 227.378906 168.386719 C 227.433594 168.105469 227.515625 167.828125 227.628906 167.5625 C 227.738281 167.292969 227.875 167.039062 228.035156 166.800781 C 228.195312 166.558594 228.375 166.335938 228.582031 166.132812 C 228.785156 165.929688 229.007812 165.746094 229.246094 165.585938 C 229.484375 165.425781 229.738281 165.289062 230.003906 165.175781 C 230.273438 165.066406 230.546875 164.984375 230.828125 164.925781 C 231.113281 164.871094 231.398438 164.84375 231.6875 164.84375 C 231.976562 164.84375 232.261719 164.871094 232.542969 164.925781 C 232.828125 164.984375 233.101562 165.066406 233.367188 165.175781 C 233.636719 165.289062 233.886719 165.425781 234.128906 165.585938 C 234.367188 165.746094 234.589844 165.929688 234.792969 166.132812 C 234.996094 166.335938 235.179688 166.558594 235.339844 166.800781 C 235.5 167.039062 235.636719 167.292969 235.746094 167.5625 C 235.855469 167.828125 235.941406 168.105469 235.996094 168.386719 C 236.050781 168.671875 236.082031 168.957031 236.082031 169.246094 Z M 236.082031 169.246094 " fill-opacity="1" fill-rule="nonzero"/><path fill="#0097b2" d="M 245.628906 178.492188 C 245.628906 178.859375 245.53125 179.214844 245.339844 179.554688 C 245.144531 179.894531 244.871094 180.191406 244.515625 180.453125 C 244.160156 180.714844 243.75 180.914062 243.285156 181.054688 C 242.820312 181.195312 242.335938 181.265625 241.832031 181.265625 C 241.328125 181.265625 240.84375 181.195312 240.378906 181.054688 C 239.914062 180.914062 239.5 180.714844 239.144531 180.453125 C 238.789062 180.191406 238.515625 179.894531 238.324219 179.554688 C 238.128906 179.214844 238.035156 178.859375 238.035156 178.492188 C 238.035156 178.125 238.128906 177.769531 238.324219 177.429688 C 238.515625 177.089844 238.789062 176.792969 239.144531 176.53125 C 239.5 176.269531 239.914062 176.070312 240.378906 175.929688 C 240.84375 175.789062 241.328125 175.71875 241.832031 175.71875 C 242.335938 175.71875 242.820312 175.789062 243.285156 175.929688 C 243.75 176.070312 244.160156 176.269531 244.515625 176.53125 C 244.871094 176.792969 245.144531 177.089844 245.339844 177.429688 C 245.53125 177.769531 245.628906 178.125 245.628906 178.492188 Z M 245.628906 178.492188 " fill-opacity="1" fill-rule="nonzero"/><path fill="#0097b2" d="M 255.554688 182.625 C 255.554688 182.949219 255.492188 183.261719 255.367188 183.5625 C 255.246094 183.863281 255.066406 184.125 254.839844 184.355469 C 254.609375 184.585938 254.347656 184.761719 254.046875 184.886719 C 253.75 185.011719 253.4375 185.074219 253.113281 185.074219 C 252.789062 185.074219 252.476562 185.011719 252.179688 184.886719 C 251.878906 184.761719 251.617188 184.585938 251.386719 184.355469 C 251.160156 184.125 250.980469 183.863281 250.859375 183.5625 C 250.734375 183.261719 250.671875 182.949219 250.671875 182.625 C 250.671875 182.300781 250.734375 181.988281 250.859375 181.6875 C 250.980469 181.390625 251.160156 181.125 251.386719 180.894531 C 251.617188 180.664062 251.878906 180.488281 252.179688 180.363281 C 252.476562 180.238281 252.789062 180.179688 253.113281 180.179688 C 253.4375 180.179688 253.75 180.238281 254.046875 180.363281 C 254.347656 180.488281 254.609375 180.664062 254.839844 180.894531 C 255.066406 181.125 255.246094 181.390625 255.367188 181.6875 C 255.492188 181.988281 255.554688 182.300781 255.554688 182.625 Z M 255.554688 182.625 " fill-opacity="1" fill-rule="nonzero"/><path fill="#0097b2" d="M 265.699219 193.828125 C 265.699219 194.167969 265.632812 194.492188 265.503906 194.804688 C 265.375 195.117188 265.191406 195.394531 264.949219 195.636719 C 264.710938 195.875 264.4375 196.058594 264.125 196.1875 C 263.8125 196.320312 263.484375 196.382812 263.148438 196.382812 C 262.808594 196.382812 262.484375 196.320312 262.171875 196.1875 C 261.859375 196.058594 261.585938 195.875 261.34375 195.636719 C 261.105469 195.394531 260.921875 195.117188 260.792969 194.804688 C 260.664062 194.492188 260.597656 194.167969 260.597656 193.828125 C 260.597656 193.488281 260.664062 193.164062 260.792969 192.851562 C 260.921875 192.535156 261.105469 192.261719 261.34375 192.019531 C 261.585938 191.78125 261.859375 191.597656 262.171875 191.464844 C 262.484375 191.335938 262.808594 191.273438 263.148438 191.273438 C 263.484375 191.273438 263.8125 191.335938 264.125 191.464844 C 264.4375 191.597656 264.710938 191.78125 264.949219 192.019531 C 265.191406 192.261719 265.375 192.535156 265.503906 192.851562 C 265.632812 193.164062 265.699219 193.488281 265.699219 193.828125 Z M 265.699219 193.828125 " fill-opacity="1" fill-rule="nonzero"/><path fill="#5ce1e6" d="M 237.328125 95.015625 C 236.839844 92.296875 232.011719 67.445312 209.554688 59.832031 C 191.871094 53.847656 173.808594 62.113281 164.101562 73.316406 C 151.625 87.675781 153.414062 106 154.28125 114.429688 C 155.476562 126.667969 159.867188 136.019531 162.960938 141.457031 C 179.289062 149.289062 196.917969 149.398438 215.195312 145.972656 C 231.902344 133.679688 240.691406 113.886719 237.328125 95.015625 Z M 237.328125 95.015625 " fill-opacity="1" fill-rule="nonzero"/><path fill="#1f110c" d="M 180.320312 109.535156 C 180.320312 109.96875 180.277344 110.394531 180.191406 110.820312 C 180.109375 111.242188 179.984375 111.65625 179.820312 112.054688 C 179.652344 112.453125 179.453125 112.832031 179.210938 113.191406 C 178.972656 113.550781 178.699219 113.882812 178.394531 114.1875 C 178.089844 114.496094 177.761719 114.765625 177.402344 115.007812 C 177.042969 115.246094 176.664062 115.449219 176.265625 115.617188 C 175.867188 115.78125 175.457031 115.90625 175.035156 115.988281 C 174.613281 116.074219 174.1875 116.117188 173.753906 116.117188 C 173.324219 116.117188 172.898438 116.074219 172.476562 115.988281 C 172.050781 115.90625 171.640625 115.78125 171.242188 115.617188 C 170.84375 115.449219 170.46875 115.246094 170.109375 115.007812 C 169.75 114.765625 169.417969 114.496094 169.113281 114.1875 C 168.808594 113.882812 168.539062 113.550781 168.296875 113.191406 C 168.058594 112.832031 167.855469 112.453125 167.691406 112.054688 C 167.527344 111.65625 167.402344 111.242188 167.316406 110.820312 C 167.234375 110.394531 167.191406 109.96875 167.191406 109.535156 C 167.191406 109.105469 167.234375 108.675781 167.316406 108.253906 C 167.402344 107.828125 167.527344 107.417969 167.691406 107.019531 C 167.855469 106.617188 168.058594 106.238281 168.296875 105.878906 C 168.539062 105.519531 168.808594 105.1875 169.113281 104.882812 C 169.417969 104.578125 169.75 104.304688 170.109375 104.066406 C 170.46875 103.824219 170.84375 103.621094 171.242188 103.457031 C 171.640625 103.292969 172.050781 103.167969 172.476562 103.082031 C 172.898438 102.996094 173.324219 102.957031 173.753906 102.957031 C 174.1875 102.957031 174.613281 102.996094 175.035156 103.082031 C 175.457031 103.167969 175.867188 103.292969 176.265625 103.457031 C 176.664062 103.621094 177.042969 103.824219 177.402344 104.066406 C 177.761719 104.304688 178.089844 104.578125 178.394531 104.882812 C 178.699219 105.1875 178.972656 105.519531 179.210938 105.878906 C 179.453125 106.238281 179.652344 106.617188 179.820312 107.019531 C 179.984375 107.417969 180.109375 107.828125 180.191406 108.253906 C 180.277344 108.675781 180.320312 109.105469 180.320312 109.535156 Z M 180.320312 109.535156 " fill-opacity="1" fill-rule="nonzero"/><path fill="#ffffff" d="M 172.019531 108.011719 C 172.019531 108.222656 171.980469 108.421875 171.898438 108.617188 C 171.820312 108.808594 171.707031 108.980469 171.558594 109.128906 C 171.410156 109.277344 171.242188 109.390625 171.046875 109.46875 C 170.855469 109.550781 170.65625 109.589844 170.445312 109.589844 C 170.238281 109.589844 170.035156 109.550781 169.84375 109.46875 C 169.652344 109.390625 169.480469 109.277344 169.332031 109.128906 C 169.1875 108.980469 169.074219 108.808594 168.992188 108.617188 C 168.914062 108.421875 168.875 108.222656 168.875 108.011719 C 168.875 107.804688 168.914062 107.601562 168.992188 107.410156 C 169.074219 107.214844 169.1875 107.046875 169.332031 106.898438 C 169.480469 106.75 169.652344 106.636719 169.84375 106.554688 C 170.035156 106.476562 170.238281 106.4375 170.445312 106.4375 C 170.65625 106.4375 170.855469 106.476562 171.046875 106.554688 C 171.242188 106.636719 171.410156 106.75 171.558594 106.898438 C 171.707031 107.046875 171.820312 107.214844 171.898438 107.410156 C 171.980469 107.601562 172.019531 107.804688 172.019531 108.011719 Z M 172.019531 108.011719 " fill-opacity="1" fill-rule="nonzero"/><path fill="#1f110c" d="M 213.191406 112.363281 C 213.191406 112.796875 213.148438 113.222656 213.0625 113.648438 C 212.980469 114.070312 212.855469 114.484375 212.691406 114.882812 C 212.527344 115.28125 212.324219 115.660156 212.082031 116.019531 C 211.84375 116.378906 211.574219 116.710938 211.269531 117.015625 C 210.964844 117.324219 210.632812 117.59375 210.273438 117.835938 C 209.914062 118.074219 209.535156 118.277344 209.136719 118.441406 C 208.738281 118.609375 208.328125 118.734375 207.90625 118.816406 C 207.484375 118.902344 207.058594 118.945312 206.625 118.945312 C 206.195312 118.945312 205.769531 118.902344 205.347656 118.816406 C 204.921875 118.734375 204.511719 118.609375 204.113281 118.441406 C 203.714844 118.277344 203.339844 118.074219 202.980469 117.835938 C 202.621094 117.59375 202.289062 117.324219 201.984375 117.015625 C 201.679688 116.710938 201.410156 116.378906 201.167969 116.019531 C 200.929688 115.660156 200.726562 115.28125 200.5625 114.882812 C 200.398438 114.484375 200.273438 114.070312 200.1875 113.648438 C 200.105469 113.222656 200.0625 112.796875 200.0625 112.363281 C 200.0625 111.933594 200.105469 111.503906 200.1875 111.082031 C 200.273438 110.65625 200.398438 110.246094 200.5625 109.847656 C 200.726562 109.445312 200.929688 109.066406 201.167969 108.707031 C 201.410156 108.347656 201.679688 108.015625 201.984375 107.710938 C 202.289062 107.40625 202.621094 107.132812 202.980469 106.894531 C 203.339844 106.652344 203.714844 106.449219 204.113281 106.285156 C 204.511719 106.121094 204.921875 105.996094 205.347656 105.910156 C 205.769531 105.824219 206.195312 105.785156 206.625 105.785156 C 207.058594 105.785156 207.484375 105.824219 207.90625 105.910156 C 208.328125 105.996094 208.738281 106.121094 209.136719 106.285156 C 209.535156 106.449219 209.914062 106.652344 210.273438 106.894531 C 210.632812 107.132812 210.964844 107.40625 211.269531 107.710938 C 211.574219 108.015625 211.84375 108.347656 212.082031 108.707031 C 212.324219 109.066406 212.527344 109.445312 212.691406 109.847656 C 212.855469 110.246094 212.980469 110.65625 213.0625 111.082031 C 213.148438 111.503906 213.191406 111.933594 213.191406 112.363281 Z M 213.191406 112.363281 " fill-opacity="1" fill-rule="nonzero"/><path fill="#ffffff" d="M 204.890625 110.839844 C 204.890625 111.050781 204.851562 111.25 204.769531 111.445312 C 204.691406 111.636719 204.578125 111.808594 204.429688 111.957031 C 204.28125 112.105469 204.113281 112.21875 203.917969 112.296875 C 203.726562 112.378906 203.527344 112.417969 203.316406 112.417969 C 203.109375 112.417969 202.910156 112.378906 202.714844 112.296875 C 202.523438 112.21875 202.351562 112.105469 202.207031 111.957031 C 202.058594 111.808594 201.945312 111.636719 201.863281 111.445312 C 201.785156 111.25 201.746094 111.050781 201.746094 110.839844 C 201.746094 110.632812 201.785156 110.429688 201.863281 110.238281 C 201.945312 110.042969 202.058594 109.875 202.207031 109.726562 C 202.351562 109.578125 202.523438 109.464844 202.714844 109.382812 C 202.910156 109.304688 203.109375 109.265625 203.316406 109.265625 C 203.527344 109.265625 203.726562 109.304688 203.917969 109.382812 C 204.113281 109.464844 204.28125 109.578125 204.429688 109.726562 C 204.578125 109.875 204.691406 110.042969 204.769531 110.238281 C 204.851562 110.429688 204.890625 110.632812 204.890625 110.839844 Z M 204.890625 110.839844 " fill-opacity="1" fill-rule="nonzero"/><path fill="#1f110c" d="M 179.34375 120.738281 C 181.132812 121.71875 183.898438 122.914062 187.425781 123.347656 C 192.902344 124.054688 197.296875 122.695312 199.464844 121.828125 C 199.414062 127.589844 194.53125 132.160156 188.941406 131.941406 C 183.300781 131.722656 178.800781 126.558594 179.34375 120.738281 Z M 179.34375 120.738281 " fill-opacity="1" fill-rule="nonzero"/><path fill="#ffacec" d="M 191.871094 125.308594 C 189.324219 126.066406 185.472656 127.863281 184.550781 130.636719 C 185.90625 131.398438 187.371094 131.832031 188.996094 131.886719 C 193.769531 132.105469 197.949219 128.789062 199.140625 124.273438 C 196.699219 124.273438 194.203125 124.601562 191.871094 125.308594 Z M 191.871094 125.308594 " fill-opacity="1" fill-rule="nonzero"/><path fill="#ffacec" d="M 165.617188 120.414062 C 165.617188 120.75 165.578125 121.082031 165.496094 121.410156 C 165.414062 121.738281 165.296875 122.058594 165.136719 122.367188 C 164.976562 122.679688 164.78125 122.972656 164.550781 123.253906 C 164.316406 123.53125 164.054688 123.789062 163.757812 124.027344 C 163.464844 124.265625 163.144531 124.476562 162.796875 124.664062 C 162.453125 124.847656 162.085938 125.007812 161.699219 125.136719 C 161.316406 125.265625 160.917969 125.359375 160.511719 125.425781 C 160.101562 125.492188 159.6875 125.523438 159.273438 125.523438 C 158.855469 125.523438 158.441406 125.492188 158.035156 125.425781 C 157.625 125.359375 157.226562 125.265625 156.84375 125.136719 C 156.457031 125.007812 156.09375 124.847656 155.746094 124.664062 C 155.398438 124.476562 155.078125 124.265625 154.785156 124.027344 C 154.488281 123.789062 154.226562 123.53125 153.996094 123.253906 C 153.765625 122.972656 153.566406 122.679688 153.410156 122.367188 C 153.25 122.058594 153.128906 121.738281 153.046875 121.410156 C 152.964844 121.082031 152.925781 120.75 152.925781 120.414062 C 152.925781 120.078125 152.964844 119.746094 153.046875 119.414062 C 153.128906 119.085938 153.25 118.765625 153.410156 118.457031 C 153.566406 118.144531 153.765625 117.851562 153.996094 117.574219 C 154.226562 117.292969 154.488281 117.035156 154.785156 116.796875 C 155.078125 116.558594 155.398438 116.347656 155.746094 116.160156 C 156.09375 115.976562 156.457031 115.816406 156.84375 115.691406 C 157.226562 115.5625 157.625 115.464844 158.035156 115.398438 C 158.441406 115.332031 158.855469 115.300781 159.273438 115.300781 C 159.6875 115.300781 160.101562 115.332031 160.511719 115.398438 C 160.917969 115.464844 161.316406 115.5625 161.699219 115.691406 C 162.085938 115.816406 162.453125 115.976562 162.796875 116.160156 C 163.144531 116.347656 163.464844 116.558594 163.757812 116.796875 C 164.054688 117.035156 164.316406 117.292969 164.550781 117.574219 C 164.78125 117.851562 164.976562 118.144531 165.136719 118.457031 C 165.296875 118.765625 165.414062 119.085938 165.496094 119.414062 C 165.578125 119.746094 165.617188 120.078125 165.617188 120.414062 Z M 165.617188 120.414062 " fill-opacity="1" fill-rule="nonzero"/><path fill="#ffacec" d="M 224.203125 125.523438 C 224.203125 125.859375 224.160156 126.191406 224.078125 126.523438 C 224 126.851562 223.878906 127.171875 223.71875 127.480469 C 223.558594 127.789062 223.363281 128.085938 223.132812 128.363281 C 222.898438 128.644531 222.636719 128.902344 222.34375 129.140625 C 222.046875 129.375 221.726562 129.589844 221.378906 129.773438 C 221.035156 129.960938 220.667969 130.117188 220.285156 130.246094 C 219.898438 130.375 219.5 130.472656 219.09375 130.539062 C 218.683594 130.601562 218.273438 130.636719 217.855469 130.636719 C 217.4375 130.636719 217.027344 130.601562 216.617188 130.539062 C 216.207031 130.472656 215.8125 130.375 215.425781 130.246094 C 215.042969 130.117188 214.675781 129.960938 214.328125 129.773438 C 213.984375 129.589844 213.660156 129.375 213.367188 129.140625 C 213.074219 128.902344 212.808594 128.644531 212.578125 128.363281 C 212.347656 128.085938 212.152344 127.789062 211.992188 127.480469 C 211.832031 127.171875 211.710938 126.851562 211.628906 126.523438 C 211.550781 126.191406 211.507812 125.859375 211.507812 125.523438 C 211.507812 125.1875 211.550781 124.855469 211.628906 124.527344 C 211.710938 124.199219 211.832031 123.878906 211.992188 123.566406 C 212.152344 123.257812 212.347656 122.964844 212.578125 122.683594 C 212.808594 122.40625 213.074219 122.148438 213.367188 121.910156 C 213.660156 121.671875 213.984375 121.460938 214.328125 121.273438 C 214.675781 121.085938 215.042969 120.929688 215.425781 120.800781 C 215.8125 120.671875 216.207031 120.574219 216.617188 120.511719 C 217.027344 120.445312 217.4375 120.414062 217.855469 120.414062 C 218.273438 120.414062 218.683594 120.445312 219.09375 120.511719 C 219.5 120.578125 219.898438 120.671875 220.285156 120.800781 C 220.667969 120.929688 221.035156 121.085938 221.382812 121.273438 C 221.726562 121.460938 222.046875 121.671875 222.34375 121.910156 C 222.636719 122.148438 222.898438 122.40625 223.132812 122.683594 C 223.363281 122.964844 223.558594 123.257812 223.71875 123.566406 C 223.878906 123.878906 224 124.199219 224.078125 124.527344 C 224.160156 124.855469 224.203125 125.1875 224.203125 125.523438 Z M 224.203125 125.523438 " fill-opacity="1" fill-rule="nonzero"/><g clip-path="url(#a2d49663de)"><g clip-path="url(#242b1a06a7)"><g clip-path="url(#484f08601a)"><path fill="#004aad" d="M 328.4375 48.601562 L 332.84375 50.503906 L 326.078125 66.171875 L 321.667969 64.269531 Z M 328.4375 48.601562 " fill-opacity="1" fill-rule="nonzero"/></g></g></g><g clip-path="url(#0723b925af)"><g clip-path="url(#203e43fe0f)"><g clip-path="url(#a8367bd03e)"><path fill="#004aad" d="M 326.75 35.933594 L 331.566406 35.792969 L 332.152344 55.855469 L 327.339844 55.996094 Z M 326.75 35.933594 " fill-opacity="1" fill-rule="nonzero"/></g></g></g><g fill="#004aad" fill-opacity="1"><g transform="translate(81.287129, 288.87234)"><g><path d="M 8.863281 -45.847656 C 11.570312 -45.847656 14.28125 -48.558594 14.28125 -51.269531 C 14.28125 -54.050781 11.570312 -56.761719 8.863281 -56.761719 C 6.078125 -56.761719 3.367188 -54.050781 3.367188 -51.269531 C 3.367188 -48.558594 6.078125 -45.847656 8.863281 -45.847656 Z M 4.90625 0 L 13.328125 0 L 13.328125 -39.84375 L 9.15625 -39.84375 L 9.15625 -39.917969 L 4.90625 -38.746094 Z M 4.90625 0 "/></g></g><g transform="translate(98.938495, 288.87234)"><g><path d="M 1.902344 0 L 10.328125 0 L 10.328125 -58.152344 L 6.152344 -58.152344 L 6.152344 -58.226562 C 4.832031 -57.933594 2.125 -57.203125 0.804688 -56.835938 L 0.804688 -56.46875 L 1.023438 -56.46875 C 1.464844 -56.324219 1.902344 -54.636719 1.902344 -52.953125 Z M 1.902344 0 "/></g></g></g><g fill="#004aad" fill-opacity="1"><g transform="translate(112.488298, 288.87234)"><g><path d="M 13.402344 0.730469 C 18.382812 0.730469 24.976562 -4.027344 27.464844 -9.226562 L 27.464844 0 L 31.640625 0 L 31.640625 0.0742188 L 35.886719 -1.097656 L 35.886719 -39.84375 L 27.464844 -39.84375 L 27.464844 -10.179688 C 25.78125 -7.542969 21.167969 -5.125 17.359375 -5.125 C 13.695312 -5.125 10.035156 -8.640625 10.035156 -12.230469 L 10.035156 -39.84375 L 1.609375 -39.84375 L 1.609375 -12.230469 C 1.609375 -5.710938 7.46875 0.730469 13.402344 0.730469 Z M 13.402344 0.730469 "/></g></g><g transform="translate(151.233413, 288.87234)"><g><path d="M 4.539062 -38.304688 L 4.980469 -39.84375 L 4.90625 -39.84375 L 4.613281 -38.671875 L 4.539062 -38.523438 Z M 3.003906 0.144531 L 33.472656 0 L 33.472656 -1.464844 L 33.984375 -1.464844 L 34.570312 -6.445312 L 33.765625 -6.445312 L 33.472656 -5.933594 C 32.8125 -4.539062 29.664062 -3.074219 26.734375 -2.710938 L 13.109375 -2.269531 L 33.835938 -37.792969 L 33.835938 -39.769531 L 5.492188 -39.769531 L 5.492188 -38.304688 L 4.613281 -38.304688 L 3.296875 -33.324219 L 4.101562 -33.324219 L 4.46875 -33.835938 C 5.347656 -35.230469 8.933594 -36.621094 12.011719 -36.914062 L 23.949219 -37.351562 L 3.003906 -1.832031 Z M 3.003906 0.144531 "/></g></g><g transform="translate(188.000989, 288.87234)"><g><path d="M 18.894531 0.730469 C 24.242188 0.730469 30.101562 -4.46875 30.613281 -9.8125 L 29.515625 -9.960938 C 29.148438 -6.589844 25.195312 -3.222656 21.460938 -3.222656 C 18.382812 -3.222656 15.378906 -7.03125 15.378906 -12.964844 L 15.601562 -35.375 L 27.683594 -35.375 L 27.683594 -39.84375 L 15.601562 -39.84375 L 15.601562 -49.4375 L 15.015625 -49.4375 L 2.417969 -36.109375 L 2.417969 -35.375 L 7.175781 -35.375 L 7.175781 -14.867188 C 7.175781 -5.417969 12.964844 0.730469 18.894531 0.730469 Z M 18.894531 0.730469 "/></g></g><g transform="translate(219.348643, 288.87234)"><g><path d="M 1.976562 0 L 10.398438 0 L 10.398438 -30.175781 C 12.449219 -33.542969 16.1875 -36.621094 18.53125 -36.621094 C 20.433594 -36.621094 22.339844 -35.375 22.339844 -34.058594 C 22.339844 -31.566406 24.828125 -29.078125 27.320312 -29.078125 C 29.808594 -29.078125 32.226562 -31.566406 32.226562 -34.058594 C 32.226562 -37.351562 27.390625 -40.574219 22.410156 -40.574219 C 18.75 -40.574219 13.035156 -36.179688 10.328125 -31.492188 L 10.328125 -39.84375 L 6.152344 -39.84375 L 6.152344 -39.917969 C 4.832031 -39.625 2.125 -38.890625 0.804688 -38.523438 L 0.878906 -38.160156 L 1.097656 -38.160156 C 1.539062 -38.011719 1.976562 -36.328125 1.976562 -34.644531 Z M 1.976562 0 "/></g></g></g><g fill="#004aad" fill-opacity="1"><g transform="translate(252.307625, 288.87234)"><g><path d="M 16.773438 -42.261719 L 27.390625 -50.902344 C 29.589844 -52.734375 31.714844 -54.785156 31.714844 -55.222656 C 31.714844 -57.128906 29.441406 -59.472656 27.539062 -59.472656 C 27.097656 -59.472656 25.195312 -57.128906 23.511719 -54.710938 L 15.746094 -43.359375 Z M 23.730469 0.730469 C 34.058594 0.730469 44.164062 -9.519531 44.164062 -19.921875 C 44.164062 -30.320312 34.058594 -40.574219 23.730469 -40.574219 C 13.402344 -40.574219 3.296875 -30.320312 3.296875 -19.921875 C 3.296875 -9.519531 13.402344 0.730469 23.730469 0.730469 Z M 23.730469 -0.0742188 C 18.089844 -0.0742188 12.597656 -9.886719 12.597656 -19.921875 C 12.597656 -29.957031 18.089844 -39.769531 23.730469 -39.769531 C 29.371094 -39.769531 34.863281 -29.957031 34.863281 -19.921875 C 34.863281 -9.886719 29.371094 -0.0742188 23.730469 -0.0742188 Z M 23.730469 -0.0742188 "/></g></g></g></svg>